<?xml version="1.0" standalone="no"?>
<!DOCTYPE svg PUBLIC "-//W3C//DTD SVG 20010904//EN"
 "http://www.w3.org/TR/2001/REC-SVG-20010904/DTD/svg10.dtd">
<svg version="1.0" xmlns="http://www.w3.org/2000/svg"
 width="700.000000pt" height="700.000000pt" viewBox="0 0 700.000000 700.000000"
 preserveAspectRatio="xMidYMid meet">
<metadata>
Created by potrace 1.14, written by Peter Selinger 2001-2017
</metadata>
<g transform="translate(0.000000,700.000000) scale(0.100000,-0.100000)"
fill="#000000" stroke="none">
<path d="M3440 6883 c-44 -9 -109 -64 -134 -114 -23 -46 -24 -58 -24 -251 0
-112 -3 -232 -7 -268 -12 -130 -37 -297 -56 -380 -12 -47 -22 -94 -24 -104 -5
-21 -12 -46 -45 -152 l-22 -71 -81 -17 c-207 -44 -462 -150 -654 -272 l-102
-65 -110 55 c-275 137 -559 345 -778 568 -83 85 -92 97 -96 139 -11 93 -66
180 -146 231 -215 136 -498 -16 -503 -271 -4 -163 122 -309 282 -328 46 -5 54
-11 173 -132 218 -221 394 -467 538 -750 l69 -135 -24 -40 c-12 -23 -35 -66
-51 -96 -15 -30 -31 -63 -36 -73 -41 -79 -129 -351 -144 -444 l-6 -41 -83 -26
c-80 -25 -183 -53 -228 -62 -53 -10 -185 -34 -213 -38 -90 -13 -116 -16 -180
-21 -38 -3 -161 -6 -272 -7 -169 0 -208 -3 -241 -18 -175 -78 -174 -320 1
-400 31 -14 72 -17 245 -18 231 -2 279 -5 470 -33 136 -19 275 -51 418 -95
l81 -25 17 -82 c17 -79 62 -224 104 -334 11 -29 47 -104 80 -167 l60 -114 -60
-118 c-141 -281 -321 -535 -534 -754 -130 -133 -136 -137 -183 -143 -178 -21
-307 -193 -279 -372 41 -266 361 -370 553 -181 56 56 95 138 95 200 0 29 15
48 128 157 226 222 473 400 750 539 l102 51 103 -65 c192 -122 447 -228 654
-272 l81 -17 25 -81 c25 -77 46 -154 52 -186 2 -8 8 -33 13 -55 9 -35 31 -162
46 -265 9 -61 17 -249 19 -430 2 -144 6 -181 20 -207 86 -161 307 -162 393 -2
19 35 19 31 25 401 3 154 22 317 54 468 9 41 18 82 20 90 7 33 28 109 51 186
l24 81 83 17 c210 45 484 160 670 281 l87 57 103 -52 c143 -73 179 -94 322
-190 156 -105 281 -207 417 -340 133 -131 137 -136 142 -184 23 -213 273 -344
468 -245 78 40 144 118 169 201 17 56 12 150 -11 212 -39 104 -149 190 -260
203 -46 5 -54 11 -167 127 -132 134 -210 225 -281 325 -26 36 -50 67 -54 69
-5 2 -8 8 -8 14 0 6 -10 25 -23 42 -41 54 -128 204 -187 322 l-57 115 72 142
c74 147 141 333 171 473 l17 81 81 26 c131 42 249 69 441 102 31 5 92 12 180
20 28 3 142 6 255 6 113 1 218 6 234 10 86 25 156 119 156 208 -1 79 -49 159
-121 197 -28 15 -62 19 -194 20 -182 3 -393 12 -445 20 -195 29 -356 64 -506
110 l-81 26 -18 81 c-29 139 -96 326 -171 476 l-72 144 60 116 c76 146 97 183
174 301 125 192 199 284 372 461 118 121 125 127 170 131 109 11 223 100 262
204 61 165 -7 337 -165 415 -128 63 -290 30 -385 -78 -42 -47 -69 -109 -77
-173 -6 -48 -10 -54 -132 -172 -234 -228 -463 -392 -740 -534 l-112 -56 -82
54 c-185 123 -476 246 -669 283 -13 3 -38 8 -55 11 -18 3 -33 7 -33 9 0 1 -13
45 -29 97 -16 52 -41 146 -55 209 -26 117 -30 138 -42 224 -3 28 -8 59 -10 70
-6 29 -15 257 -17 435 -2 143 -4 159 -26 195 -53 91 -141 128 -251 108z"/>
</g>
</svg>
